<?xml version="1.0" encoding="utf-8"?>
<!-- Generator: Adobe Illustrator 24.1.3, SVG Export Plug-In . SVG Version: 6.00 Build 0)  -->
<svg version="1.1" id="Calque_1" xmlns="http://www.w3.org/2000/svg" xmlns:xlink="http://www.w3.org/1999/xlink" x="0px" y="0px"
	 viewBox="0 0 300 300" style="enable-background:new 0 0 300 300;" xml:space="preserve">
<style type="text/css">
	.st0{fill:#A600FF;}
</style>
<g>
	<path class="st0" d="M0,290.6c4.7-19.3,12.1-37.5,24.5-52.9c12.4-15.4,24.8-32,40.6-43.3c19.2-13.7,41.1-22.7,66.2-25.2
		c29.4-3,56.4,1.6,82.4,13.5c29.3,13.3,50.6,35.9,67,63.3c6.5,10.8,12.8,21.8,19.2,32.6c0,7.3,0,14.6,0,22c-100,0-200,0-300,0
		C0,297.2,0,293.9,0,290.6z"/>
	<path class="st0" d="M149.8,14.3c39.2-0.1,70,30.3,70.2,69.4c0.2,39.6-30.5,70.6-70,70.6c-38.8,0-69.7-31.1-69.7-70
		C80.3,45.1,110.8,14.4,149.8,14.3z"/>
</g>
</svg>
