<?xml version="1.0" encoding="utf-8"?>
<!-- Generator: Adobe Illustrator 24.1.3, SVG Export Plug-In . SVG Version: 6.00 Build 0)  -->
<svg version="1.1" id="Calque_1" xmlns="http://www.w3.org/2000/svg" xmlns:xlink="http://www.w3.org/1999/xlink" x="0px" y="0px"
	 viewBox="0 0 512 448" style="enable-background:new 0 0 512 448;" xml:space="preserve">
<style type="text/css">
	.st0{display:none;fill:url(#SVGID_1_);}
	.st1{fill:url(#SVGID_2_);}
</style>
<linearGradient id="SVGID_1_" gradientUnits="userSpaceOnUse" x1="-1.226694e-02" y1="224.0041" x2="511.9976" y2="224.0041">
	<stop  offset="0" style="stop-color:#A822C5"/>
	<stop  offset="1" style="stop-color:#AF1984"/>
</linearGradient>
<path class="st0" d="M462.3,30.6C407.5-16.1,326-7.7,275.7,44.2L256,64.5l-19.7-20.3C186.1-7.7,104.5-16.1,49.7,30.6
	c-62.8,53.6-66.1,149.8-9.9,207.9l193.5,199.8c12.5,12.9,32.8,12.9,45.3,0l193.5-199.8C528.4,180.4,525.1,84.2,462.3,30.6
	L462.3,30.6z"/>
<linearGradient id="SVGID_2_" gradientUnits="userSpaceOnUse" x1="33.025" y1="224.0332" x2="478.975" y2="224.0332">
	<stop  offset="0" style="stop-color:#3961D0"/>
	<stop  offset="1" style="stop-color:#7D1EBB"/>
</linearGradient>
<path class="st1" d="M340.5,224L467.3,97.3c15.6-15.6,15.6-40.8,0-56.4l-28.2-28.2c-15.6-15.6-40.8-15.6-56.4,0L256,139.5
	L129.2,12.7c-15.6-15.6-40.8-15.6-56.4,0L44.7,40.9c-15.6,15.6-15.6,40.8,0,56.4L171.5,224L44.7,350.8c-15.6,15.6-15.6,40.8,0,56.4
	l28.2,28.2c15.6,15.6,40.8,15.6,56.4,0L256,308.6l126.8,126.8c15.6,15.6,40.8,15.6,56.4,0l28.2-28.2c15.6-15.6,15.6-40.8,0-56.4
	L340.5,224z"/>
</svg>
